<?xml version="1.0" standalone="no"?>
<!DOCTYPE svg PUBLIC "-//W3C//DTD SVG 20010904//EN"
 "http://www.w3.org/TR/2001/REC-SVG-20010904/DTD/svg10.dtd">
<svg version="1.0" xmlns="http://www.w3.org/2000/svg"
 width="1024.000000pt" height="233.000000pt" viewBox="0 0 1024.000000 233.000000"
 preserveAspectRatio="xMidYMid meet">

<g transform="translate(0.000000,233.000000) scale(0.100000,-0.100000)"
fill="#000000" stroke="none">
<path d="M6642 1413 l3 -638 125 0 125 0 3 638 2 637 -130 0 -130 0 2 -637z"/>
<path d="M464 1892 c-23 -15 -35 -51 -24 -72 17 -33 44 -40 147 -40 117 0 143
-12 143 -65 0 -60 -22 -67 -226 -65 -198 1 -224 -6 -224 -59 0 -55 20 -61 193
-61 144 0 159 -2 177 -20 26 -26 26 -72 -1 -96 -17 -16 -42 -20 -137 -24 -113
-5 -117 -6 -131 -31 -13 -24 -13 -29 2 -53 l17 -26 143 0 c130 0 145 -2 165
-20 22 -20 29 -64 14 -86 -16 -24 -54 -34 -126 -32 -61 1 -80 -3 -96 -17 -25
-23 -26 -57 -2 -78 16 -15 46 -17 216 -17 l197 0 87 41 c82 39 322 166 331
175 3 2 -19 49 -47 103 -28 54 -48 101 -45 105 4 4 124 6 267 5 175 0 262 3
264 10 4 12 -109 166 -226 308 -54 65 -95 106 -115 112 -34 13 -945 15 -963 3z"/>
<path d="M2558 1705 c-50 -18 -119 -67 -143 -99 -11 -14 -23 -26 -27 -26 -4 0
-8 28 -10 63 l-3 62 -125 0 -125 0 0 -605 0 -605 128 -3 127 -3 0 201 c0 110
2 200 4 200 2 0 21 -16 42 -36 22 -20 62 -47 89 -62 97 -50 283 -37 378 26
135 91 207 239 207 426 -1 200 -90 357 -247 437 -59 30 -75 34 -162 36 -65 2
-108 -2 -133 -12z m100 -206 c59 -12 123 -63 155 -123 18 -34 22 -57 22 -136
0 -105 -16 -149 -72 -202 -62 -59 -177 -77 -252 -38 -50 25 -105 89 -119 139
-15 47 -16 154 -2 200 22 79 87 141 166 160 53 12 47 12 102 0z"/>
<path d="M3750 1709 c-53 -21 -104 -66 -141 -123 -21 -33 -40 -53 -40 -45 -1
7 -2 48 -3 89 l-1 75 -125 0 -125 0 -3 -468 -2 -468 127 3 128 3 5 240 c5 228
6 242 29 285 47 91 110 136 209 148 l57 7 0 130 0 130 -45 2 c-25 1 -56 -2
-70 -8z"/>
<path d="M4870 1701 c-88 -28 -140 -60 -201 -120 -93 -94 -139 -207 -139 -346
0 -139 45 -248 142 -341 86 -83 157 -117 278 -134 140 -20 301 29 399 121 l44
41 -76 76 -75 75 -34 -28 c-54 -46 -106 -65 -179 -65 -126 0 -213 72 -240 198
-22 110 18 227 99 286 37 26 54 31 117 34 81 4 140 -15 192 -64 14 -13 29 -24
34 -24 9 0 149 151 149 161 0 11 -65 65 -112 93 -96 56 -285 74 -398 37z"/>
<path d="M5825 1701 c-76 -27 -106 -45 -163 -96 -101 -91 -156 -219 -156 -365
0 -282 195 -478 479 -481 93 -1 152 11 229 45 56 25 146 99 146 120 0 7 -29
38 -65 70 l-65 58 -54 -36 c-66 -44 -130 -60 -206 -53 -84 7 -137 40 -177 107
-18 30 -33 60 -33 67 0 10 69 13 328 15 l327 3 -1 95 c-1 235 -133 417 -332
459 -80 17 -199 13 -257 -8z m204 -191 c62 -17 126 -97 133 -166 l3 -29 -202
-3 c-233 -3 -226 -6 -178 88 52 103 137 141 244 110z"/>
<path d="M8111 1702 c-25 -9 -71 -41 -103 -71 l-58 -53 0 60 c0 45 -4 61 -16
66 -9 3 -67 6 -130 6 l-114 0 2 -467 3 -468 125 0 125 0 5 300 c4 268 7 304
24 338 24 49 78 77 148 77 67 0 110 -25 139 -82 21 -40 22 -59 26 -328 2 -157
6 -291 8 -297 3 -10 37 -13 125 -13 l121 0 -3 364 -3 363 -35 68 c-38 74 -97
125 -168 145 -55 15 -171 11 -221 -8z"/>
<path d="M9071 1704 c-61 -16 -105 -41 -169 -94 -199 -164 -218 -516 -37 -706
147 -154 403 -193 597 -92 58 31 138 93 138 108 0 4 -31 36 -69 70 l-70 61
-49 -34 c-65 -44 -127 -61 -205 -55 -95 8 -147 41 -188 120 -37 72 -55 68 300
68 245 0 322 3 328 13 12 20 5 142 -13 215 -42 171 -150 288 -300 327 -72 19
-192 18 -263 -1z m202 -198 c21 -8 48 -22 59 -33 26 -22 68 -110 68 -140 l0
-23 -199 0 c-110 0 -202 3 -205 8 -8 13 33 114 56 140 52 56 143 75 221 48z"/>
<path d="M4063 1702 c-10 -6 -12 -115 -10 -467 l2 -460 125 0 125 0 0 465 0
465 -115 3 c-63 1 -120 -2 -127 -6z"/>
<path d="M7170 1245 l0 -465 23 -5 c12 -3 69 -5 127 -3 l105 3 0 465 0 465
-127 3 -128 3 0 -466z"/>
<path d="M326 1124 c-21 -20 -20 -58 0 -79 25 -24 75 -16 93 16 13 24 13 29
-2 53 -20 30 -66 35 -91 10z"/>
</g>
</svg>
